<svg xmlns="http://www.w3.org/2000/svg" xmlns:xlink="http://www.w3.org/1999/xlink" preserveAspectRatio="xMidYMid" width="21.149" height="15.144" viewBox="0 0 17.624 12.62">
  <defs>
    <style>
      .cls-1 {
        fill: #688da1;
        fill-rule: evenodd;
      }
    </style>
  </defs>
  <path d="M17.612,11.534 C17.612,11.733 17.555,11.916 17.464,12.076 L17.464,12.076 L17.464,12.076 C17.358,12.261 17.202,12.411 17.012,12.508 L17.012,12.508 L17.012,12.508 C16.862,12.586 16.693,12.634 16.512,12.634 L1.112,12.634 C0.692,12.634 0.331,12.396 0.146,12.050 L0.146,12.050 L0.146,12.050 C0.063,11.896 0.012,11.722 0.012,11.534 L0.012,1.084 C0.012,0.477 0.504,-0.015 1.112,-0.015 L16.512,-0.015 C16.835,-0.015 17.122,0.125 17.323,0.347 C17.326,0.350 17.328,0.353 17.330,0.356 C17.372,0.402 17.409,0.451 17.442,0.503 C17.446,0.508 17.448,0.514 17.452,0.520 C17.483,0.572 17.511,0.626 17.534,0.683 L17.534,0.683 L17.534,0.683 C17.583,0.808 17.612,0.942 17.612,1.084 L17.612,11.534 ZM11.899,6.447 L16.499,11.047 C16.502,11.025 16.512,11.006 16.512,10.984 L16.512,1.834 L11.899,6.447 ZM15.962,11.534 C15.984,11.534 16.003,11.524 16.025,11.521 L11.425,6.921 L9.604,8.742 C9.157,9.189 8.432,9.189 7.985,8.742 L6.181,6.939 L1.598,11.521 C1.620,11.524 1.639,11.534 1.662,11.534 L15.962,11.534 ZM1.112,1.869 L1.112,10.984 C1.112,10.996 1.118,11.006 1.119,11.018 L5.690,6.447 L1.112,1.869 ZM1.662,1.084 C1.639,1.084 1.620,1.094 1.598,1.097 L8.423,7.922 C8.638,8.136 8.986,8.136 9.201,7.922 L16.025,1.097 C16.003,1.094 15.984,1.084 15.962,1.084 L1.662,1.084 Z" class="cls-1"/>
</svg>
