<svg xmlns="http://www.w3.org/2000/svg" xmlns:xlink="http://www.w3.org/1999/xlink" preserveAspectRatio="xMidYMid" width="15.826" height="23.016" viewBox="0 0 13.188 19.18">
  <defs>
    <style>
      .cls-1 {
        fill: #688da1;
        fill-rule: evenodd;
      }
    </style>
  </defs>
  <path d="M11.994,19.189 L1.194,19.189 C0.531,19.189 -0.006,18.652 -0.006,17.989 L-0.006,1.189 C-0.006,0.526 0.531,-0.011 1.194,-0.011 L11.994,-0.011 C12.657,-0.011 13.194,0.526 13.194,1.189 L13.194,17.989 C13.194,18.652 12.657,19.189 11.994,19.189 ZM11.994,1.789 C11.994,1.458 11.725,1.189 11.394,1.189 L1.794,1.189 C1.462,1.189 1.194,1.458 1.194,1.789 L1.194,17.389 C1.194,17.721 1.462,17.989 1.794,17.989 L11.394,17.989 C11.725,17.989 11.994,17.721 11.994,17.389 L11.994,1.789 ZM10.794,16.189 L2.394,16.189 C2.062,16.189 1.794,15.921 1.794,15.589 L1.794,3.589 C1.794,3.258 2.062,2.989 2.394,2.989 L10.794,2.989 C11.125,2.989 11.394,3.258 11.394,3.589 L11.394,15.589 C11.394,15.921 11.125,16.189 10.794,16.189 ZM10.794,3.589 L2.394,3.589 L2.394,15.589 L10.794,15.589 L10.794,3.589 ZM7.494,2.389 L5.694,2.389 C5.528,2.389 5.394,2.255 5.394,2.089 C5.394,1.923 5.528,1.789 5.694,1.789 L7.494,1.789 C7.659,1.789 7.794,1.923 7.794,2.089 C7.794,2.255 7.659,2.389 7.494,2.389 ZM6.594,16.489 C6.925,16.489 7.194,16.758 7.194,17.089 C7.194,17.421 6.925,17.689 6.594,17.689 C6.262,17.689 5.994,17.421 5.994,17.089 C5.994,16.758 6.262,16.489 6.594,16.489 Z" class="cls-1"/>
</svg>
