<svg xmlns="http://www.w3.org/2000/svg" xmlns:xlink="http://www.w3.org/1999/xlink" preserveAspectRatio="xMidYMid" width="18.674" height="27" viewBox="0 0 15.562 22.5">
  <defs>
    <style>
      .cls-1 {
        fill: #688da1;
        fill-rule: evenodd;
      }
    </style>
  </defs>
  <path d="M9.160,21.293 C8.755,21.838 8.485,22.490 7.781,22.490 C7.077,22.490 6.675,21.751 6.401,21.293 C4.540,18.227 -0.007,11.205 -0.007,7.791 C-0.007,3.490 3.480,0.003 7.781,0.003 C12.082,0.003 15.568,3.490 15.568,7.791 C15.568,11.205 11.065,18.139 9.160,21.293 ZM7.781,1.555 C4.341,1.555 1.553,4.343 1.553,7.783 C1.553,10.513 5.189,16.829 6.677,19.281 C6.896,19.647 7.218,20.239 7.781,20.239 C8.344,20.239 8.560,19.717 8.884,19.281 C10.408,16.759 14.009,10.513 14.009,7.783 C14.009,4.343 11.220,1.555 7.781,1.555 ZM5.025,7.791 C5.025,6.268 6.259,5.034 7.781,5.034 C9.303,5.034 10.537,6.268 10.537,7.791 C10.537,9.313 9.303,10.547 7.781,10.547 C6.259,10.547 5.025,9.313 5.025,7.791 ZM9.706,7.791 C9.706,6.728 8.844,5.865 7.781,5.865 C6.718,5.865 5.856,6.728 5.856,7.791 C5.856,8.854 6.718,9.715 7.781,9.715 C8.844,9.715 9.706,8.854 9.706,7.791 Z" class="cls-1"/>
</svg>
